# AST/ASF file generated using VICON BodyLanguage
# -----------------------------------------------
:version 1.10
:name VICON
:units
  mass 1.0
  length 0.45
  angle deg
:documentation
   .ast/.asf automatically generated from VICON data using
   VICON BodyBuilder and BodyLanguage model FoxedUp or BRILLIANT.MOD
:root
   order TX TY TZ RX RY RZ
   axis XYZ
   position 0 0 0  
   orientation 0 0 0 
:bonedata
  begin
     id 1 
     name lhipjoint
     direction 0.707368 -0.647095 0.284426 
     length 2.60678 
     axis 0 0 0  XYZ
  end
  begin
     id 2 
     name lfemur
     direction 0.34202 -0.939693 0  
     length 6.63812  
     axis 0 0 20  XYZ
    dof rx ry rz
    limits (-160.0 20.0)
           (-70.0 70.0)
           (-60.0 70.0)
  end
  begin
     id 3 
     name ltibia
     direction 0.34202 -0.939693 0   
     length 7.51178   
     axis 0 0 20   XYZ
    dof rx
    limits (-10.0 170.0)
  end
  begin
     id 4 
     name lfoot
     direction 0.121251 -0.333133 0.935051   
     length 1.83716   
     axis -90 7.62852e-016 20   XYZ
    dof rx rz
    limits (-45.0 90.0)
           (-70.0 20.0)
  end
  begin
     id 5 
     name ltoes
     direction 1.53611e-011 -4.21962e-011 1   
     length 0.916133   
     axis -90 7.62852e-016 20   XYZ
    dof rx
    limits (-90.0 20.0)
  end
  begin
     id 6 
     name rhipjoint
     direction -0.692419 -0.660507 0.290321   
     length 2.55385  
     axis 0 0 0  XYZ 
  end
  begin
     id 7 
     name rfemur
     direction -0.34202 -0.939693 0   
     length 7.29079   
     axis 0 0 -20   XYZ
    dof rx ry rz
    limits (-160.0 20.0)
           (-70.0 70.0)
           (-70.0 60.0)
  end
  begin
     id 8 
     name rtibia
     direction -0.34202 -0.939693 0   
     length 7.47143   
     axis 0 0 -20   XYZ
    dof rx
    limits (-10.0 170.0)
 end
 begin
     id 9 
     name rfoot
     direction -0.119907 -0.329441 0.936532   
     length 1.79439  
     axis -90 -7.62852e-016 -20   XYZ
    dof rx rz
    limits (-45.0 90.0)
           (-20.0 70.0)
  end
  begin
     id 10 
     name rtoes
     direction -1.53571e-011 -4.21961e-011 1   
     length 0.896039   
     axis -90 -7.62852e-016 -20   XYZ
    dof rx
    limits (-90.0 20.0)
  end
  begin
     id 11 
     name lowerback
     direction 0.0367721 0.992912 -0.113016   
     length 1.73542   
     axis 0 0 0   XYZ
    dof rx ry rz
    limits (-20.0 45.0)
           (-30.0 30.0)
           (-30.0 30.0)
  end
  begin
     id 12 
     name upperback
     direction -0.000314626 0.990678 0.136227   
     length 1.7514   
     axis 0 0 0   XYZ
    dof rx ry rz
    limits (-20.0 45.0)
           (-30.0 30.0)
           (-30.0 30.0)
  end
  begin
     id 13 
     name thorax
     direction -0.0226159 0.981151 0.191917   
     length 1.71471   
     axis 0 0 0   XYZ
    dof rx ry rz
    limits (-20.0 45.0)
           (-30.0 30.0)
           (-30.0 30.0)
  end
  begin
     id 14 
     name lowerneck
     direction 0.0219333 0.998071 0.0580739   
     length 1.65882   
     axis 0 0 0   XYZ
    dof rx ry rz
    limits (-20.0 45.0)
           (-30.0 30.0)
           (-30.0 30.0)
  end
  begin
     id 15 
     name upperneck
     direction 0.0384529 0.980058 -0.194957   
     length 1.6612   
     axis 0 0 0   XYZ
    dof rx ry rz
    limits (-20.0 45.0)
           (-30.0 30.0)
           (-30.0 30.0)
  end
  begin
     id 16
     name head
     direction 0.00592123 0.997421 -0.0715234  
     length 1.68077  
     axis 0 0 0   XYZ
    dof rx ry rz
    limits (-20.0 45.0)
           (-30.0 30.0)
           (-30.0 30.0)
  end
  begin
     id 17 
     name lclavicle
     direction 0.904803 0.417826 0.0821728  
     length 3.42227  
     axis 0 0 0   XYZ
    dof ry rz
    limits (-20.0 10.0)
           (0.0 20.0)
  end
  begin
     id 18 
     name lhumerus
     direction 1 -4.48965e-011 -2.68786e-027   
     length 5.11878   
     axis -180 -30 -90   XYZ
    dof rx ry rz
    limits (-60.0 90.0)
           (-90.0 90.0)
           (-90.0 90.0)
  end
  begin
     id 19
     name lradius
     direction 1 -4.48965e-011 2.61168e-028   
     length 3.59971   
     axis -180 -30 -90   XYZ
    dof rx
    limits (-10.0 170.0)
  end
  begin
     id 20
     name lwrist
     direction 1 -4.48965e-011 1.58672e-027   
     length 1.79985   
     axis -1.65735e-015 90 90   XYZ
    dof ry
    limits (-180.0 0.0)
 end
  begin
     id 21 
     name lhand
     direction 1 -4.48942e-011 3.17344e-027   
     length 0.62877   
     axis -2.02492e-015 90 90   XYZ
    dof rx rz
    limits (-90.0 90.0)
           (-45.0 45.0)
  end
  begin
     id 22 
     name lfingers
     direction 1 -4.49011e-011 6.34687e-027   
     length 0.506931   
     axis -4.04985e-015 90 90   XYZ
    dof rx
    limits (0.0 90.0)
  end
  begin
     id 23
     name lthumb
     direction 0.707107 -6.34982e-011 0.707107   
     length 0.727854   
     axis -90 45 2.85299e-015   XYZ
    dof rx rz
    limits (-45.0 45.0)
           (-45.0 45.0)
  end
  begin
     id 24 
     name rclavicle
     direction -0.945647 0.32488 0.0143075   
     length 3.52737  
     axis 0 0 0   XYZ 
    dof ry rz
    limits (-10.0 20.0)
           (-20.0 0.0)
  end
  begin
     id 25 
     name rhumerus
     direction -1 -4.48962e-011 1.92182e-027  
     length 5.4902   
     axis -180 30 90   XYZ
    dof rx ry rz
    limits (-90.0 60.0)
           (-90.0 90.0)
           (-90.0 90.0)
  end
  begin
     id 26 
     name rradius
     direction -1 -4.48967e-011 -5.97193e-028   
     length 3.20659   
     axis -180 30 90   XYZ
    dof rx
    limits (-10.0 170.0)
  end
  begin
     id 27 
     name rwrist
     direction -1 -4.48964e-011 1.58672e-027   
     length 1.6033   
     axis -1.65735e-015 -90 -90   XYZ
    dof ry
    limits (-180.0 0.0)
  end
  begin
     id 28
     name rhand
     direction -1 -4.49006e-011 3.17344e-027   
     length 0.691885   
     axis -2.02492e-015 -90 -90   XYZ
    dof rx rz
    limits (-90.0 90.0)
           (-45.0 45.0)
  end
  begin
     id 29
     name rfingers
     direction -1 -4.48908e-011 6.34687e-027   
     length 0.557815   
     axis -4.04985e-015 -90 -90   XYZ
    dof rx
    limits (0.0 90.0)
  end
  begin
     id 30
     name rthumb
     direction -0.707107 -6.34999e-011 0.707107   
     length 0.800915   
     axis -90 -45 -2.85299e-015   XYZ
    dof rx rz
    limits (-45.0 45.0)
           (-45.0 45.0)
  end
:hierarchy
  begin
    root lhipjoint rhipjoint lowerback
    lhipjoint lfemur
    lfemur ltibia
    ltibia lfoot
    lfoot ltoes
    rhipjoint rfemur
    rfemur rtibia
    rtibia rfoot
    rfoot rtoes
    lowerback upperback
    upperback thorax
    thorax lowerneck lclavicle rclavicle
    lowerneck upperneck
    upperneck head
    lclavicle lhumerus
    lhumerus lradius
    lradius lwrist
    lwrist lhand lthumb
    lhand lfingers
    rclavicle rhumerus
    rhumerus rradius
    rradius rwrist
    rwrist rhand rthumb
    rhand rfingers
  end

#!OML:ASF I:\Actors\actors\Patient Classification 1\Patient 1\Session 1\Subject1.ASF
:FULLY-SPECIFIED
:DEGREES
64
root 0.59254 17.4964 9.31554 10.6562 -0.710185 -8.44711
lowerback -1.15244 1.70595 7.46349
upperback -10.0371 2.64386 0.0630697
thorax -9.73738 0.672516 -4.28066
lowerneck -7.20095 -9.04625 -5.93479
upperneck 21.1535 -13.9008 9.5308
head 8.88373 -6.20448 2.72948
rclavicle -7.65321e-015 1.82882e-014
rhumerus -65.6604 -53.2219 -33.4385
rradius 25.0088
rwrist 44.9306
rhand 8.36393 -33.3977
rfingers 7.12502
rthumb 33.573 -60.2753
lclavicle -7.65321e-015 1.82882e-014
lhumerus -55.6214 44.9035 42.5772
lradius 23.0403
lwrist -22.7021
lhand -15.3529 -7.5586
lfingers 7.12502
lthumb 10.8244 22.1425
rfemur -5.49647 26.82 24.5247
rtibia 1.66242
rfoot -11.0184 -26.3445
rtoes 2.15278
lfemur 3.52035 -46.8624 -11.1683
ltibia -4.45081
lfoot -22.3503 53.6356
ltoes 8.80541
65
root 0.594171 17.496 9.31639 10.6716 -0.727958 -8.44738
lowerback -1.10063 1.70557 7.46837
upperback -10.0526 2.64998 0.0736071
thorax -9.78553 0.673121 -4.27481
lowerneck -7.05867 -8.97894 -6.07613
upperneck 21.0979 -13.86 9.85872
head 8.87047 -6.17281 2.87353
rclavicle 2.29596e-014 -1.82882e-014
rhumerus -65.6046 -53.1185 -33.5021
rradius 25.0037
rwrist 44.9161
rhand 8.33279 -33.4417
rfingers 7.12502
rthumb 33.5434 -60.3257
lclavicle 2.29596e-014 -1.82882e-014
lhumerus -55.5809 44.8811 42.6892
lradius 23.0785
lwrist -22.6842
lhand -15.3012 -7.66173
lfingers 7.12502
lthumb 10.8742 22.0367
rfemur -5.53052 26.8287 24.5101
rtibia 1.6898
rfoot -10.9543 -26.3422
rtoes 2.01531
lfemur 3.51454 -46.8888 -11.1728
ltibia -4.44294
lfoot -22.6131 53.632
ltoes 9.17905
66
root 0.595669 17.4961 9.31719 10.6901 -0.728376 -8.44703
lowerback -1.05769 1.68672 7.46004
upperback -10.0704 2.63061 0.0936186
thorax -9.83505 0.662687 -4.24953
lowerneck -6.9621 -8.94897 -5.92697
upperneck 21.0324 -13.8302 9.8386
head 8.81493 -6.15512 2.85211
rclavicle 2.54444e-014 1.27222e-014
rhumerus -65.5645 -53.0054 -33.5698
rradius 25.0381
rwrist 44.9427
rhand 8.35601 -33.387
rfingers 7.12502
rthumb 33.5654 -60.2661
lclavicle 2.54444e-014 1.27222e-014
lhumerus -55.6691 44.995 42.6089
lradius 23.0932
lwrist -22.7811
lhand -15.3335 -7.68584
lfingers 7.12502
lthumb 10.843 22.0142
rfemur -5.55354 26.8374 24.4964
rtibia 1.7068
rfoot -10.9558 -26.3485
rtoes 2.05687
lfemur 3.49536 -46.9524 -11.1734
ltibia -4.43118
lfoot -22.656 53.6971
ltoes 9.25076
67
root 0.597723 17.4961 9.31955 10.7105 -0.705555 -8.41361
lowerback -1.05425 1.6524 7.44003
upperback -10.0827 2.58466 0.0984739
thorax -9.85773 0.640708 -4.23068
lowerneck -6.8632 -9.02043 -6.04397
upperneck 20.9023 -13.8865 9.77052
head 8.76043 -6.20496 2.84575
rclavicle 2.85256e-014 6.36111e-015
rhumerus -65.5673 -52.9439 -33.568
rradius 25.0321
rwrist 45.0167
rhand 8.36637 -33.334
rfingers 7.12502
rthumb 33.5753 -60.211
lclavicle 2.85256e-014 6.36111e-015
lhumerus -55.7554 45.081 42.5112
lradius 23.1
lwrist -22.8546
lhand -15.4241 -7.68361
lfingers 7.12502
lthumb 10.7557 22.021
rfemur -5.54409 26.8097 24.4479
rtibia 1.67446
rfoot -10.9797 -26.347
rtoes 1.97352
lfemur 3.46818 -47.005 -11.2168
ltibia -4.40154
lfoot -22.6564 53.7268
ltoes 9.14478
68
root 0.599975 17.4966 9.32192 10.7354 -0.677481 -8.3807
lowerback -1.02804 1.63204 7.45253
upperback -10.1107 2.56103 0.0906362
thorax -9.90807 0.624688 -4.24616
lowerneck -6.8605 -9.09 -6.10336
upperneck 20.973 -13.9654 9.68348
head 8.78892 -6.25267 2.81598
rclavicle -1.09332e-014 4.77083e-015
rhumerus -65.6722 -52.9019 -33.4408
rradius 24.986
rwrist 45.1093
rhand 8.28334 -33.3543
rfingers 7.12502
rthumb 33.4964 -60.2484
lclavicle -1.09332e-014 4.77083e-015
lhumerus -55.6862 44.9425 42.6702
lradius 23.1335
lwrist -22.7123
lhand -15.4498 -7.62736
lfingers 7.12502
lthumb 10.7309 22.0786
rfemur -5.54027 26.7884 24.3974
rtibia 1.6317
rfoot -10.9618 -26.3551
rtoes 1.78619
lfemur 3.42083 -47.0073 -11.2376
ltibia -4.37389
lfoot -22.6759 53.6868
ltoes 9.10041
69
root 0.601035 17.4978 9.32275 10.7718 -0.666095 -8.39734
lowerback -0.974138 1.63174 7.4949
upperback -10.148 2.57013 0.096945
thorax -9.98162 0.621698 -4.2664
lowerneck -6.99998 -9.17435 -6.21611
upperneck 21.2446 -14.0981 9.68618
head 8.92891 -6.30969 2.80978
rclavicle -4.87022e-015 3.57812e-014
rhumerus -65.8028 -52.8622 -33.2952
rradius 24.9441
rwrist 45.1736
rhand 8.15764 -33.435
rfingers 7.12502
rthumb 33.3769 -60.355
lclavicle -4.87022e-015 3.57812e-014
lhumerus -55.5236 44.7247 42.9649
lradius 23.1716
lwrist -22.4765
lhand -15.4403 -7.49502
lfingers 7.12502
lthumb 10.7401 22.2104
rfemur -5.58575 26.8066 24.3921
rtibia 1.62398
rfoot -10.9411 -26.3881
rtoes 1.8282
lfemur 3.37689 -47.0867 -11.1788
ltibia -4.39201
lfoot -22.679 53.7584
ltoes 9.09982
70
root 0.601909 17.4986 9.32284 10.8213 -0.678764 -8.3981
lowerback -0.939238 1.62684 7.49088
upperback -10.1887 2.56939 0.106145
thorax -10.0497 0.618175 -4.25637
lowerneck -6.9845 -9.23084 -6.281
upperneck 21.2804 -14.1684 9.66147
head 8.94778 -6.34964 2.80325
rclavicle 4.87022e-015 -1.59028e-014
rhumerus -65.8259 -52.769 -33.296
rradius 24.9237
rwrist 45.1538
rhand 8.13376 -33.5178
rfingers 7.12502
rthumb 33.3542 -60.4426
lclavicle 4.87022e-015 -1.59028e-014
lhumerus -55.4813 44.6222 43.0805
lradius 23.2049
lwrist -22.4151
lhand -15.4672 -7.35687
lfingers 7.12502
lthumb 10.7142 22.3499
rfemur -5.68242 26.7583 24.3521
rtibia 1.65616
rfoot -10.9223 -26.3524
rtoes 1.83636
lfemur 3.32727 -47.2191 -11.1388
ltibia -4.40645
lfoot -22.6901 53.9013
ltoes 9.13392
71
root 0.602805 17.4986 9.32321 10.8639 -0.693861 -8.37024
lowerback -0.932509 1.61488 7.45579
upperback -10.2126 2.55387 0.112554
thorax -10.0839 0.611838 -4.22963
lowerneck -6.85121 -9.25636 -6.21129
upperneck 21.1384 -14.1629 9.49418
head 8.85513 -6.36685 2.74452
rclavicle 7.45443e-015 -7.95139e-016
rhumerus -65.7656 -52.6533 -33.3873
rradius 24.9078
rwrist 45.0764
rhand 8.20279 -33.52
rfingers 7.12502
rthumb 33.4198 -60.4307
lclavicle 7.45443e-015 -7.95139e-016
lhumerus -55.477 44.5406 43.1583
lradius 23.2537
lwrist -22.363
lhand -15.4892 -7.20905
lfingers 7.12502
lthumb 10.6929 22.4988
rfemur -5.75293 26.7284 24.2883
rtibia 1.68775
rfoot -10.9536 -26.3082
rtoes 1.99332
lfemur 3.2808 -47.3058 -11.1483
ltibia -4.38961
lfoot -22.8396 53.9657
ltoes 9.32509
72
root 0.603135 17.4985 9.32387 10.884 -0.709454 -8.35092
lowerback -0.934456 1.60547 7.42885
upperback -10.2056 2.53985 0.120227
thorax -10.0772 0.608139 -4.20521
lowerneck -6.79732 -9.32967 -6.29201
upperneck 21.0777 -14.2459 9.47551
head 8.83651 -6.41776 2.74329
rclavicle -1.74931e-014 2.78299e-014
rhumerus -65.776 -52.6101 -33.3945
rradius 24.907
rwrist 45.0734
rhand 8.25556 -33.4539
rfingers 7.12502
rthumb 33.47 -60.3538
lclavicle -1.74931e-014 2.78299e-014
lhumerus -55.3785 44.4375 43.3334
lradius 23.2759
lwrist -22.2257
lhand -15.5369 -7.09941
lfingers 7.12502
lthumb 10.6469 22.6109
rfemur -5.7705 26.7684 24.2526
rtibia 1.6923
rfoot -10.977 -26.3108
rtoes 2.24193
lfemur 3.27185 -47.3709 -11.1778
ltibia -4.36701
lfoot -23.1527 53.9914
ltoes 9.62145
